<?xml version="1.0" ?><!DOCTYPE svg  PUBLIC '-//W3C//DTD SVG 1.1//EN'  'http://www.w3.org/Graphics/SVG/1.1/DTD/svg11.dtd'><svg enable-background="new 0 0 64 64" version="1.1" viewBox="0 0 64 64" xml:space="preserve" xmlns="http://www.w3.org/2000/svg" xmlns:xlink="http://www.w3.org/1999/xlink"><g id="Layer_4"/><g id="object"><g><path d="M47,3v16c0,1.105-0.895,2-2,2H19c-1.105,0-2-0.895-2-2v-5v-2v-2V8V3H5C3.895,3,3,3.895,3,5v54    c0,1.105,0.895,2,2,2h6V37v-5c0-1.105,0.895-2,2-2h38c1.105,0,2,0.895,2,2v5v24h6c1.105,0,2-0.895,2-2V12l-9-9H47z" fill="#666666"/><path d="M17,10v2v2v5c0,1.105,0.895,2,2,2h26c1.105,0,2-0.895,2-2V3H17v5V10z M34,7h6v10h-6V7z" fill="#FFFFFF"/><path d="M53,32c0-1.105-0.895-2-2-2H13c-1.105,0-2,0.895-2,2v5h42V32z" fill="#3EBBDD"/><path d="M11,37v24h42V37H11z" fill="#FFFFFF"/><rect fill="#FFFFFF" height="10" width="6" x="34" y="7"/><path d="M59,62H5c-1.654,0-3-1.346-3-3V5c0-1.654,1.346-3,3-3h47.414L62,11.586V59C62,60.654,60.654,62,59,62z M5,4    C4.448,4,4,4.449,4,5v54c0,0.551,0.448,1,1,1h54c0.552,0,1-0.449,1-1V12.414L51.586,4H5z"/><rect height="2" width="2" x="16" y="10"/><path d="M45,22H19c-1.654,0-3-1.346-3-3v-5h2v5c0,0.551,0.448,1,1,1h26c0.552,0,1-0.449,1-1V4H18v4h-2V2h32v17    C48,20.654,46.654,22,45,22z"/><path d="M54,62H10V32c0-1.654,1.346-3,3-3h38c1.654,0,3,1.346,3,3V62z M12,60h40V32c0-0.551-0.448-1-1-1H13c-0.552,0-1,0.449-1,1    V60z"/><rect height="2" width="42" x="11" y="36"/><rect height="2" width="14" x="16" y="54"/><rect height="2" width="6" x="16" y="48"/><rect height="2" width="19" x="16" y="42"/><rect height="2" width="2" x="6" y="55"/><rect height="2" width="2" x="6" y="6"/><rect height="2" width="2" x="56" y="55"/><path d="M40,18h-6c-0.553,0-1-0.448-1-1V7c0-0.552,0.447-1,1-1h6c0.553,0,1,0.448,1,1v10C41,17.552,40.553,18,40,18z M35,16h4V8    h-4V16z"/><rect height="2" width="2" x="37" y="42"/><rect height="2" width="7" x="41" y="42"/><rect height="2" width="2" x="24" y="48"/><rect height="2" width="20" x="28" y="48"/><rect height="2" width="2" x="32" y="54"/><rect height="2" width="12" x="36" y="54"/></g></g><g id="tag"/></svg>